<?xml version="1.0" standalone="no"?>
<!DOCTYPE svg PUBLIC "-//W3C//DTD SVG 20010904//EN"
 "http://www.w3.org/TR/2001/REC-SVG-20010904/DTD/svg10.dtd">
<svg version="1.0" xmlns="http://www.w3.org/2000/svg"
 width="528.000000pt" height="528.000000pt" viewBox="0 0 528.000000 528.000000"
 preserveAspectRatio="xMidYMid meet">
<metadata>
Created by potrace 1.14, written by Peter Selinger 2001-2017
</metadata>
<g transform="translate(0.000000,528.000000) scale(0.100000,-0.100000)"
fill="#000000" stroke="none">
<path d="M2374 5261 c-10 -2 -23 -6 -29 -10 -5 -4 -39 -6 -75 -6 -36 0 -68 -3
-71 -7 -3 -5 -19 -11 -35 -14 -16 -2 -42 -7 -59 -11 -16 -3 -40 -7 -52 -9 -12
-1 -27 -5 -32 -9 -6 -3 -19 -8 -28 -10 -53 -10 -123 -30 -158 -43 -22 -8 -47
-16 -55 -16 -9 -1 -20 -5 -26 -8 -6 -4 -21 -9 -35 -12 -13 -3 -48 -14 -77 -25
-29 -11 -55 -20 -57 -20 -3 0 -21 -8 -41 -16 -20 -8 -40 -15 -45 -15 -5 0 -9
-4 -9 -10 0 -5 -9 -10 -20 -10 -11 0 -20 -4 -20 -10 0 -5 -7 -10 -15 -10 -8 0
-15 -3 -15 -8 0 -7 -73 -42 -89 -42 -5 0 -16 -6 -23 -13 -7 -7 -39 -28 -70
-47 -32 -19 -58 -38 -58 -42 0 -4 -12 -8 -27 -8 -14 0 -24 -3 -20 -6 7 -7 -17
-34 -30 -34 -4 0 -24 -14 -43 -30 -19 -16 -41 -30 -47 -30 -7 0 -13 -4 -13
-10 0 -5 -7 -10 -16 -10 -8 0 -12 -4 -9 -10 3 -5 -1 -10 -10 -10 -9 0 -13 -4
-10 -10 3 -5 1 -10 -5 -10 -7 0 -25 -13 -40 -30 -15 -16 -31 -30 -35 -30 -4 0
-20 -13 -35 -30 -15 -16 -30 -30 -33 -30 -3 0 -35 -29 -71 -65 -36 -36 -64
-65 -61 -65 2 0 -6 -10 -18 -23 -12 -12 -33 -37 -47 -55 -14 -18 -37 -48 -52
-65 -15 -18 -28 -35 -28 -39 0 -4 -11 -19 -25 -33 -14 -14 -22 -25 -18 -25 4
0 3 -4 -2 -8 -15 -10 -85 -118 -85 -131 0 -6 -3 -11 -8 -11 -4 0 -32 -48 -62
-107 -30 -60 -58 -110 -61 -113 -3 -3 -12 -22 -20 -42 -7 -21 -17 -38 -23 -38
-5 0 -7 -2 -4 -6 3 -3 -7 -35 -23 -72 -16 -37 -29 -75 -29 -84 0 -10 -4 -18
-8 -18 -5 0 -9 -6 -10 -12 -1 -23 -10 -56 -21 -76 -5 -10 -10 -27 -9 -38 1
-10 -9 -53 -21 -94 -13 -41 -25 -86 -28 -100 -2 -14 -8 -41 -13 -60 -22 -83
-33 -181 -45 -385 -9 -143 -9 -177 -1 -252 4 -35 9 -107 12 -160 6 -136 7
-143 23 -152 8 -5 11 -16 7 -28 -3 -11 -1 -44 5 -74 5 -30 13 -65 15 -79 3
-13 9 -29 13 -35 10 -11 25 -70 25 -98 1 -10 7 -21 14 -26 10 -6 52 -118 67
-176 8 -31 28 -75 35 -75 4 0 11 -17 15 -38 4 -20 22 -65 41 -99 19 -34 34
-69 34 -77 0 -8 9 -22 21 -30 12 -8 18 -19 15 -24 -3 -5 1 -15 9 -22 8 -7 15
-19 15 -28 0 -8 11 -30 25 -48 14 -18 25 -38 25 -44 0 -6 5 -8 10 -5 6 3 10
-1 10 -10 0 -9 5 -13 10 -10 6 3 10 -1 10 -9 0 -9 4 -16 8 -16 8 0 36 -60 33
-73 -1 -5 3 -6 9 -2 5 3 10 2 10 -3 0 -5 14 -24 31 -41 17 -18 28 -39 25 -47
-3 -7 0 -13 6 -11 6 1 17 -8 23 -20 7 -13 15 -20 18 -16 4 3 7 -1 7 -11 0 -9
5 -14 10 -11 6 3 10 1 10 -5 0 -11 36 -48 88 -90 17 -14 31 -29 32 -34 0 -10
60 -80 60 -69 0 4 6 -2 14 -12 8 -11 12 -23 10 -27 -3 -5 2 -8 10 -8 9 0 16
-4 16 -10 0 -5 4 -10 9 -10 5 0 32 -23 60 -50 28 -28 55 -50 59 -50 5 0 23
-13 40 -30 18 -16 36 -30 42 -30 5 0 10 -4 10 -10 0 -5 8 -10 18 -10 10 0 24
-9 32 -20 8 -11 21 -20 29 -20 7 0 21 -8 30 -18 9 -9 39 -28 66 -42 28 -14 52
-27 55 -31 3 -3 20 -12 38 -20 17 -8 32 -17 32 -21 0 -5 9 -8 21 -8 11 0 17
-4 14 -10 -4 -6 5 -10 19 -10 14 0 26 -4 26 -10 0 -5 9 -10 20 -10 11 0 20 -4
20 -10 0 -5 11 -10 25 -10 14 0 25 -4 25 -10 0 -5 7 -10 15 -10 8 0 23 -4 33
-9 9 -5 29 -14 45 -20 15 -6 39 -16 55 -22 15 -6 35 -15 44 -20 10 -5 29 -9
43 -9 15 0 24 -4 20 -10 -4 -6 7 -10 25 -10 16 0 38 -4 48 -9 33 -16 89 -31
120 -31 17 0 34 -4 37 -10 3 -5 22 -10 41 -10 19 0 34 -4 34 -8 0 -5 26 -10
57 -11 32 -1 62 -6 68 -10 5 -5 44 -9 85 -10 42 -1 96 -4 120 -7 73 -8 267 -5
390 5 151 13 324 40 347 54 6 4 24 9 40 12 15 2 48 9 73 15 25 6 60 14 78 17
17 3 32 9 32 13 0 4 12 10 28 13 46 8 244 85 315 122 16 8 35 15 42 15 7 0 15
3 17 8 4 10 101 57 115 55 7 0 11 3 8 7 -3 5 8 14 25 22 16 7 30 16 30 20 0 5
7 8 15 8 8 0 15 5 15 10 0 6 5 10 11 10 9 0 97 55 109 69 3 3 12 11 21 16 64
40 101 68 106 80 3 8 10 15 17 15 7 0 29 16 49 35 20 19 39 35 42 35 7 0 225
220 225 228 0 4 22 30 48 58 60 66 83 94 76 94 -2 0 7 12 21 28 14 15 28 35
31 45 3 9 9 17 14 17 5 0 12 9 15 20 3 11 12 26 18 32 37 38 217 382 217 413
0 8 5 15 12 15 6 0 9 2 6 5 -3 3 8 38 24 78 24 60 80 233 93 287 29 126 45
207 50 260 4 36 9 74 11 85 17 88 23 362 11 510 -11 122 -16 161 -38 275 -39
198 -93 374 -162 530 -11 25 -27 61 -35 80 -9 19 -15 38 -14 43 1 4 -3 7 -9 7
-5 0 -8 4 -4 9 3 5 -2 16 -10 24 -8 9 -15 18 -15 22 0 9 -84 140 -92 143 -4 2
-8 12 -8 23 0 10 -4 19 -9 19 -5 0 -14 14 -22 31 -7 18 -23 42 -35 54 -13 13
-20 26 -17 29 4 3 1 6 -5 6 -7 0 -12 7 -12 15 0 7 -6 18 -13 22 -7 4 -24 24
-37 43 -33 47 -42 59 -62 78 -10 9 -18 20 -18 25 0 5 -14 20 -30 34 -17 13
-28 29 -24 34 3 5 0 9 -6 9 -6 0 -29 18 -51 40 -21 21 -39 38 -39 36 0 -2 -36
31 -79 73 -44 42 -98 92 -122 111 -23 19 -53 45 -68 57 -14 13 -31 23 -36 23
-6 0 -17 9 -25 19 -7 11 -17 18 -22 15 -4 -3 -8 -1 -8 3 0 12 -87 73 -109 76
-9 1 -28 12 -41 24 -12 12 -27 20 -32 17 -4 -3 -11 1 -14 10 -3 8 -12 12 -20
9 -8 -3 -14 -1 -14 4 0 5 -35 27 -77 49 -43 21 -81 43 -84 48 -4 5 -12 5 -18
2 -6 -4 -14 0 -17 9 -4 9 -13 14 -20 11 -7 -3 -19 1 -26 8 -8 7 -40 23 -73 35
-33 12 -67 25 -75 28 -18 8 -17 7 -57 17 -17 4 -37 14 -43 22 -7 7 -16 12 -20
9 -5 -3 -21 0 -37 7 -15 6 -31 11 -35 10 -4 -1 -20 3 -35 9 -15 6 -46 12 -67
14 -22 3 -42 8 -45 12 -3 5 -22 8 -41 8 -19 0 -44 5 -55 10 -11 6 -56 10 -100
10 -44 0 -83 4 -87 9 -6 9 -480 15 -524 7z"/>
</g>
</svg>
